# xmcd
#
# Track frame offsets: 
#        150
#        31443
#        61599
#        72709
#        97330
#        107491
#        124626
#        142650
#        163461
#        171897
#        204082
#        215365
#        225956
#        237960
#        257023
#        274303
#        289921
#        317754
#
# Disc length: 4669 seconds
#
# Revision: 0
# Processed by: cddbd v1.5.2PL0 Copyright (c) Steve Scherf et al.
# Submitted via: ExactAudioCopy v1.0b3
#
DISCID=07123b12
DTITLE=Pedro Lenz - Liebesgschichte
DYEAR=2012
DGENRE=Audiobook
TTITLE0=Yolanda
TTITLE1=Akzeptiere
TTITLE2=Angscht
TTITLE3=Bhüet di
TTITLE4=Der aut Mantu
TTITLE5=Diego
TTITLE6=Ouge
TTITLE7=Ihri Stimm
TTITLE8=Schnäggli
TTITLE9=Blowing in the wind
TTITLE10=Sohn
TTITLE11=Thailand
TTITLE12=D Ouge vo de Guschti
TTITLE13=Chino im Chopf
TTITLE14=Es Kasettli
TTITLE15=Drü Vättere
TTITLE16=Der Chönig
TTITLE17=Muschtermäss
EXTD=
EXTT0=
EXTT1=
EXTT2=
EXTT3=
EXTT4=
EXTT5=
EXTT6=
EXTT7=
EXTT8=
EXTT9=
EXTT10=
EXTT11=
EXTT12=
EXTT13=
EXTT14=
EXTT15=
EXTT16=
EXTT17=
PLAYORDER=
